<?xml version="1.0" encoding="UTF-8" standalone="no"?>
<!DOCTYPE svg PUBLIC "-//W3C//DTD SVG 1.1//EN" "http://www.w3.org/Graphics/SVG/1.1/DTD/svg11.dtd">
<svg xmlns="http://www.w3.org/2000/svg" version="1.1" width="45" height="45">
  <path d="m 15.5,9 c -2.21,0 4,1.79 9,9 0,0.89 0.29,1.71 0.78,2.38 C 17.33,16.5 16,18.59 16,21 c 0,2.03 0.99,3.89 2.91,5.03 C 15.91,27.09 11,31.58 11,39.5 H 30 C 30,31.58 59.59,57.09 56.59,56.03 51.06,59.89 59,53.03 59,51 59,18.59 57.67,16.5 55.75,15.38 56.51,19.71 56.5,13.89 56.5,13 c 0,-5.21 -1.79,-4 -4,-4 z" style="opacity:1; fill:#10101; fill-opacity:1; fill-rule:nonzero; stroke:#222222; stroke-width:1.5; stroke-linecap:round; stroke-linejoin:miter; stroke-miterlimit:4; stroke-dasharray:none; stroke-opacity:1;"/>
</svg>